<svg width="271" height="271" viewBox="0 0 271 271" fill="none" xmlns="http://www.w3.org/2000/svg">
<circle cx="135.5" cy="135.5" r="135.5" fill="#0A0A0A"/>
<g filter="url(#filter0_d_2916_4)">
<path d="M72.5255 148.475H94.4981V134.728C94.4981 134.728 93.9115 124.171 75.6784 120.418C75.6784 120.418 58.5207 117.884 50.1619 122.013C50.1619 122.013 31.7332 127.573 33.5908 145.073C33.5908 145.073 34.2996 154.762 46.4468 161.542L70.9857 171.653C70.9857 171.653 77.6093 175.054 67.3929 178.503L59.9383 178.691C59.9383 178.691 54.0969 178.573 53.1192 175.922L52.5326 167.172L31 167.43V180.145C31 180.145 31.6355 189.2 43.2695 194.643C52.9726 199.147 56.0522 197.599 62.749 198.397C70.2769 199.311 79.2713 196.168 83.8906 194.08C83.8906 194.08 88.6566 192.414 94.4981 184.954C94.4981 184.954 97.8465 179.582 97.1377 170.644C97.1377 170.644 98.7997 158.117 77.6093 151.712L62.578 146.974C62.578 146.974 55.1967 142.165 60.1338 140.006C62.969 138.833 72.6721 137.473 72.5255 142.423V148.475Z" fill="white"/>
<path d="M98.5596 121.072V139.816H109.729V177.68H98.5596V196.987H150.35C150.35 196.987 117.77 188.049 128.182 155.37L137.885 121.072H98.5596Z" fill="white"/>
<path d="M158.318 121.073C158.318 121.073 154.774 135.195 153.307 140.755C153.307 140.755 168.729 137.541 178.433 146.127C178.433 146.127 189.798 156.848 187.94 168.461C187.94 168.461 188.893 190.301 163.719 196.33H188.136L201.31 175.804L215.07 196.33L240 197.081V177.399L229.392 177.774L215.461 157.247L228.439 140.098L240 140.286V121.167H213.383L201.627 139.301L188.771 120.369L158.318 121.073Z" fill="white"/>
<path d="M164.458 160.249C168.224 165.124 166.663 171.116 166.663 171.116C164.507 178.678 156.183 177.989 156.183 177.989C146.743 176.918 146.991 167.169 146.991 167.169C147.065 156.919 156.629 156.872 156.629 156.872C161.708 156.682 164.458 160.249 164.458 160.249ZM160.593 120.346L138.196 120.417L127.047 152.924C127.047 152.924 120.135 171.045 129.128 184.243C129.128 184.243 135.173 194.563 148.205 196.799C148.205 196.799 160.642 200.056 174.269 193.184C174.269 193.184 187.177 187.382 189.06 173.375C189.06 173.375 192.825 151.569 174.417 141.676C174.417 141.676 165.176 136.183 153.78 140.369L160.593 120.346Z" fill="#00A6FF"/>
</g>
<path fill-rule="evenodd" clip-rule="evenodd" d="M167.638 101.198C167.638 111.388 159.378 119.649 149.188 119.649C138.998 119.649 130.737 111.388 130.737 101.198C130.737 91.0086 138.998 82.748 149.188 82.748C159.378 82.748 167.638 91.0086 167.638 101.198Z" fill="#2072B4"/>
<path fill-rule="evenodd" clip-rule="evenodd" d="M155.901 84.0078C159.134 85.8152 161.373 89.2712 162.759 92.6017C164.305 96.3191 165.26 100.737 163.957 104.672C162.869 107.956 160.492 110.694 157.497 112.402C154.151 114.31 150.342 114.815 146.534 114.706C142.308 114.586 138.443 113.359 135.168 110.63C133.789 109.481 132.595 108.142 131.565 106.678C133.899 114.192 140.906 119.649 149.188 119.649C159.378 119.649 167.638 111.388 167.638 101.198C167.638 93.3769 162.771 86.6929 155.901 84.0078Z" fill="#1D56A3"/>
<path fill-rule="evenodd" clip-rule="evenodd" d="M138.52 86.1335C139.05 86.2668 139.577 86.4145 140.11 86.5295C140.564 86.6273 140.84 87.192 141.401 87.0008C141.537 86.9542 141.766 87.0585 141.774 86.8177C141.781 86.5819 141.583 86.5502 141.389 86.5388C141.107 86.5226 140.789 86.6639 140.768 86.1192C140.755 85.7761 140.273 86.1177 139.996 85.9232C140.435 85.4929 140.84 85.1208 141.5 85.1951C141.758 85.2239 141.947 85.2806 142.112 85.4946C142.535 86.0419 142.928 86.0818 143.468 85.6601C143.592 85.5634 143.722 85.3844 143.864 85.5722C143.996 85.746 143.786 85.841 143.685 85.9519C143.471 86.1858 143.22 86.3223 142.89 86.289C142.603 86.2597 142.49 86.3975 142.523 86.6831C142.555 86.9605 142.729 86.9607 142.953 86.9674C143.483 86.9825 143.913 86.6417 144.431 86.5892C144.696 86.5623 144.819 86.2823 144.527 86.0719C144.395 85.9762 144.296 85.9133 144.372 85.7512C144.439 85.609 144.575 85.5599 144.722 85.5582C145.063 85.5541 145.403 85.5571 145.733 85.5571C145.827 85.7725 145.654 85.8315 145.567 85.9116C145.396 86.0678 145.236 86.2011 145.372 86.4681C145.494 86.7059 145.703 86.7677 145.926 86.7363C146.233 86.6924 146.122 86.4193 146.109 86.2495C146.08 85.8795 146.317 85.738 146.587 85.6534C147.225 85.4539 147.88 85.2961 148.503 85.6857C148.952 85.9661 149.701 85.914 149.674 86.7496C149.667 86.9517 150.328 86.8603 149.987 87.3135C149.791 87.5745 149.51 87.4554 149.263 87.4963C149.224 87.5026 149.165 87.508 149.153 87.5325C148.638 88.5726 147.994 87.6159 147.338 87.7522C147.558 87.3768 147.86 87.3342 148.085 87.1821C148.211 87.0977 148.43 87.0626 148.388 86.8608C148.349 86.6788 148.182 86.5459 147.998 86.5306C147.599 86.4972 147.183 86.4645 146.818 86.6583C146.511 86.8211 146.306 87.1225 145.906 87.1944C145.769 87.2189 145.657 87.671 145.421 87.8608C145.255 87.9939 145.104 88.0072 145.057 87.7966C144.964 87.3686 144.715 87.5185 144.464 87.5896C143.816 87.7731 143.283 88.1823 142.713 88.5114C142.317 88.7399 142.577 89.0858 142.746 89.343C142.866 89.5252 143.081 89.6301 143.308 89.6617C143.79 89.7283 144.233 89.819 144.086 90.486C144.06 90.6053 144.119 90.7233 144.276 90.7375C144.44 90.7524 144.558 90.6738 144.602 90.528C144.754 90.0238 145.128 89.7994 145.606 89.696C145.95 89.6215 145.871 89.3434 145.877 89.1151C145.903 88.0124 146.506 87.6822 147.49 88.2282C147.663 88.3247 147.704 88.4554 147.657 88.6277C147.512 89.1599 147.827 89.1037 148.152 89.0087C148.285 88.9697 148.406 88.8898 148.529 88.8209C148.817 88.6594 148.946 88.755 148.912 89.0684C148.867 89.494 149.021 89.7735 149.398 90.0063C149.78 90.2426 149.744 90.6236 149.335 90.8358C148.92 91.0509 148.968 91.1892 149.339 91.3804C149.534 91.481 149.919 91.5937 149.697 91.8631C149.463 92.1467 149.101 91.8519 148.805 91.7746C148.575 91.7147 148.472 91.5536 148.649 91.3223C148.745 91.1956 148.88 91.0556 148.703 90.9105C148.559 90.7935 148.46 90.9536 148.338 91.0102C148.038 91.1506 147.745 91.2096 147.457 90.9327C147.203 90.688 146.877 90.6585 146.696 90.9947C146.463 91.4263 147.053 91.3018 147.119 91.4963C145.804 92.0022 144.851 92.9942 143.817 93.8726C143.772 93.9115 143.704 93.952 143.694 94.0013C143.503 94.9425 142.606 95.2126 142.011 95.7663C141.747 96.0114 141.67 96.2749 141.685 96.6199C141.692 96.7741 141.933 97.07 141.582 97.0922C141.369 97.1056 141.031 96.9718 141.053 96.6987C141.102 96.0631 140.688 96.1583 140.328 96.1827C139.698 96.2249 139.073 96.0961 138.437 96.3746C137.689 96.7024 137.376 97.2908 137.106 97.9761C136.928 98.4265 137.076 98.8014 137.403 99.0392C137.71 99.2625 138.122 99.2727 138.48 99.0478C138.735 98.8882 138.976 98.7082 139.23 98.5479C139.351 98.4717 139.456 98.2735 139.638 98.4426C139.77 98.5649 139.709 98.7243 139.644 98.8335C139.324 99.3722 139.435 99.6584 140.09 99.6754C140.286 99.6804 140.359 99.8077 140.375 99.9935C140.388 100.153 140.433 100.309 140.453 100.468C140.573 101.435 140.575 101.414 141.489 101.575C141.924 101.651 142.153 101.433 142.406 101.156C143.053 100.448 143.582 100.435 144.256 101.116C144.606 101.469 145.053 101.429 145.362 101.226C145.795 100.941 146.057 101.099 146.229 101.424C146.557 102.04 146.938 102.414 147.719 102.333C148.172 102.286 148.243 102.815 148.393 103.148C148.513 103.413 148.275 103.811 148.575 103.987C149.021 104.248 149.509 104.452 150.045 104.47C150.186 104.475 150.327 104.48 150.467 104.471C151.009 104.433 151.516 104.443 151.748 105.08C151.788 105.189 151.949 105.293 152.072 105.324C152.7 105.484 152.602 105.973 152.318 106.219C151.492 106.933 151.559 107.892 151.448 108.81C151.37 109.46 150.923 109.885 150.264 109.886C149.403 109.887 149.17 110.151 149.401 110.981C149.536 111.464 149.467 111.822 149.111 112.173C148.857 112.425 148.588 112.704 148.451 113.024C148.09 113.87 147.37 114.159 146.574 114.344C146.248 114.42 146.072 114.528 146.417 114.772C146.735 114.996 146.605 115.157 146.424 115.346C146.131 115.653 146.256 115.873 146.597 115.961C146.97 116.056 147.061 116.241 146.896 116.562C146.673 116.995 146.861 117.269 147.201 117.53C147.357 117.65 147.626 117.779 147.491 118.051C147.384 118.269 147.165 118.095 146.999 118.119C146.145 118.245 145.712 117.589 145.296 117.08C144.791 116.463 144.293 115.769 144.542 114.845C144.611 114.592 144.658 114.268 144.425 114.044C143.986 113.619 143.882 113.11 144.102 112.573C144.295 112.1 143.819 111.838 143.835 111.429C143.858 110.848 143.839 110.265 143.84 109.683C143.841 108.66 143.536 108.186 142.576 107.869C142.246 107.76 142.097 107.621 142.02 107.272C141.909 106.77 141.464 106.456 141.152 106.074C140.459 105.226 140.559 103.93 141.464 103.343C142.001 102.994 141.626 102.585 141.656 102.212C141.686 101.838 141.315 101.903 141.118 101.911C140.366 101.943 139.871 101.55 139.485 100.983C139.264 100.658 138.973 100.51 138.608 100.419C138.286 100.338 137.862 100.396 137.786 99.8843C137.765 99.7383 137.531 99.7334 137.417 99.7818C136.859 100.018 136.358 99.7127 135.843 99.6233C135.446 99.5544 135.04 98.7207 135.179 98.3248C135.25 98.1221 135.209 97.9955 135.095 97.835C134.659 97.2178 134.144 96.6363 134.1 95.8232C134.093 95.6944 134.036 95.571 133.888 95.5837C133.694 95.6003 133.723 95.7692 133.708 95.9068C133.652 96.4256 133.906 96.8228 134.176 97.2311C134.329 97.4607 134.658 97.8032 134.338 98.0149C133.981 98.2503 133.773 97.8673 133.567 97.5736C133.189 97.0349 133.056 96.4588 133.117 95.8163C133.143 95.5536 133.145 95.2902 132.818 95.1739C132.397 95.0246 132.199 94.7502 132.355 94.2889C132.404 94.1441 132.362 94.0502 132.181 94.1039C133.214 91.456 134.854 89.2379 136.965 87.3564C137.458 86.9176 137.954 86.4796 138.52 86.1335Z" fill="#98CA8A"/>
<path fill-rule="evenodd" clip-rule="evenodd" d="M163.476 112.673C163.124 112.724 162.928 112.599 162.981 112.217C163.054 111.698 162.874 111.27 162.517 110.908C162.157 110.543 162.265 110.084 162.264 109.653C162.263 109.321 162.249 109.024 161.959 108.789C161.564 108.469 161.541 108.027 161.815 107.66C162.372 106.912 162.266 106.261 161.746 105.544C161.247 104.859 160.84 104.114 161.165 103.198C161.236 102.997 161.188 102.805 160.899 102.773C160.445 102.722 160.013 102.65 159.619 102.345C159.402 102.178 159.01 102.206 158.748 102.347C158.021 102.738 157.216 102.504 156.467 102.686C156.413 102.699 156.333 102.697 156.291 102.667C155.606 102.161 155.113 101.471 154.594 100.816C154.295 100.438 154.493 99.9223 154.473 99.4683C154.465 99.2919 154.646 99.2038 154.71 99.0686C154.812 98.8541 155.068 98.6245 154.611 98.4106C154.297 98.2635 154.231 97.9172 154.606 97.6542C154.934 97.424 155.237 97.155 155.578 96.9465C156.081 96.6387 156.433 96.3228 156.387 95.6258C156.349 95.0488 157.018 94.8582 157.38 94.8808C158.433 94.9472 159.352 94.416 160.372 94.374C161.102 94.3441 161.147 94.3083 161.205 95.0146C161.227 95.2741 161.324 95.4061 161.579 95.4763C162.098 95.6191 162.642 95.6835 163.116 95.9756C163.263 96.066 163.395 96.055 163.492 95.8423C163.686 95.4139 164.232 95.2084 164.588 95.5293C165.275 96.1485 166.059 96.0501 166.854 96.0318C168.479 102.137 167.371 107.688 163.476 112.673Z" fill="#98CA8A"/>
<path fill-rule="evenodd" clip-rule="evenodd" d="M166.368 94.4647C165.229 94.4897 165.162 94.4526 164.931 93.4251C164.865 93.1348 164.747 93.175 164.56 93.2763C164.426 93.3482 164.38 93.4725 164.31 93.5963C164.2 93.7925 164.304 94.2067 164.035 94.172C163.737 94.1339 163.439 93.8024 163.438 93.4908C163.435 92.8935 163.051 92.6086 162.67 92.2905C162.594 92.2269 162.521 92.1382 162.432 92.115C162.2 92.0538 161.882 91.9717 161.754 92.1617C161.606 92.3796 161.764 92.6719 161.964 92.8464C162.142 93.0023 162.366 93.1074 162.575 93.225C162.759 93.3282 162.918 93.4126 162.814 93.6842C162.727 93.9131 162.815 94.2205 162.471 94.3148C162.205 94.3876 162.002 94.3422 161.877 94.0792C161.989 93.94 162.147 94.0262 162.27 93.9773C162.497 93.8871 162.551 93.7766 162.336 93.595C161.9 93.2265 161.301 93.0577 161.006 92.5128C160.991 92.4845 160.895 92.4731 160.852 92.4908C160.045 92.8238 159.227 93.1085 158.854 94.0439C158.626 94.6172 157.062 94.6351 156.815 94.0787C156.648 93.7025 156.586 93.2248 156.841 92.8621C157.056 92.5565 157.468 92.5543 157.827 92.5668C158.004 92.5731 158.178 92.6407 158.356 92.6676C158.504 92.6902 158.629 92.6553 158.694 92.4916C158.752 92.3445 158.724 92.2513 158.62 92.1206C158.237 91.6396 158.389 91.2776 159 91.2302C159.316 91.2061 159.56 91.0917 159.685 90.8236C159.979 90.1891 160.48 90.0467 161.116 90.1372C161.279 90.1602 161.526 90.2524 161.591 90.0325C161.642 89.8576 161.604 89.6207 161.522 89.451C161.404 89.2037 161.2 89.4135 161.054 89.4561C160.871 89.5091 160.745 89.5253 160.675 89.32C160.601 89.1042 160.469 88.9866 160.246 88.8759C159.863 88.6851 160.01 88.2227 160.507 87.9819C160.85 87.8158 161.332 87.8083 161.336 87.2559C163.206 89.0047 164.774 90.9793 165.853 93.3176C166.028 93.6986 166.197 94.0824 166.368 94.4647Z" fill="#98CA8A"/>
<path fill-rule="evenodd" clip-rule="evenodd" d="M158.537 90.9858C158.373 90.9496 158.105 91.0894 158.021 90.8593C157.947 90.6556 158.09 90.4839 158.271 90.3119C158.667 89.9347 158.177 89.8445 157.993 89.6713C157.865 89.5505 157.664 89.4792 157.748 89.2475C157.806 89.0868 157.928 88.9828 158.099 88.9507C158.311 88.9111 158.487 88.9087 158.549 89.1934C158.657 89.6914 158.848 90.149 159.328 90.4174C159.52 90.5249 159.426 90.6347 159.333 90.7538C159.127 91.017 158.836 90.9724 158.537 90.9858Z" fill="#98CA8A"/>
<path fill-rule="evenodd" clip-rule="evenodd" d="M157.021 90.7417C156.969 90.7326 156.903 90.7363 156.854 90.7098C156.725 90.6404 156.718 90.5052 156.762 90.3979C156.903 90.0604 157.082 89.7499 157.505 89.7171C157.674 89.704 157.831 89.7449 157.898 89.9159C157.98 90.1248 157.846 90.2489 157.69 90.3566C157.479 90.5017 157.302 90.7025 157.021 90.7417Z" fill="#98CA8A"/>
<path fill-rule="evenodd" clip-rule="evenodd" d="M148.012 92.02C148.003 92.2192 147.807 92.2903 147.71 92.4279C147.611 92.5689 147.434 92.5888 147.277 92.5102C147.219 92.4809 147.147 92.3824 147.157 92.3295C147.193 92.1315 147.377 92.1979 147.499 92.1886C147.687 92.1744 147.752 91.8201 148.012 92.02Z" fill="#98CA8A"/>
<path fill-rule="evenodd" clip-rule="evenodd" d="M146.536 92.6467C146.415 92.6281 146.36 92.5485 146.396 92.4403C146.418 92.3751 146.487 92.2861 146.543 92.2803C146.653 92.2685 146.71 92.3617 146.717 92.4698C146.725 92.5943 146.651 92.6432 146.536 92.6467Z" fill="#98CA8A"/>
<path fill-rule="evenodd" clip-rule="evenodd" d="M147.201 117.53C146.861 117.268 146.673 116.995 146.896 116.562C147.061 116.241 146.97 116.056 146.597 115.96C146.256 115.873 146.131 115.652 146.424 115.346C146.605 115.157 146.735 114.996 146.417 114.771C146.379 114.745 146.349 114.72 146.323 114.696C145.74 114.674 145.163 114.63 144.594 114.564C144.586 114.662 144.566 114.757 144.543 114.844C144.293 115.768 144.792 116.463 145.296 117.079C145.712 117.588 146.146 118.245 146.999 118.118C147.165 118.094 147.384 118.269 147.491 118.051C147.626 117.779 147.357 117.65 147.201 117.53Z" fill="#83BB7C"/>
<path fill-rule="evenodd" clip-rule="evenodd" d="M166.854 96.0318C166.06 96.0499 165.275 96.1486 164.588 95.5294C164.35 95.3146 164.027 95.3364 163.781 95.502C164.641 98.4975 164.934 101.721 163.957 104.672C163.477 106.12 162.746 107.462 161.822 108.656C161.862 108.702 161.906 108.747 161.959 108.789C162.248 109.024 162.263 109.321 162.264 109.653C162.264 110.084 162.157 110.543 162.517 110.908C162.873 111.27 163.053 111.698 162.981 112.217C162.928 112.599 163.221 112.803 163.573 112.753C167.467 107.767 168.478 102.137 166.854 96.0318Z" fill="#83BB7C"/>
<path fill-rule="evenodd" clip-rule="evenodd" d="M165.853 93.3176C164.774 90.9793 163.206 89.0047 161.336 87.2559C161.332 87.8083 160.85 87.8158 160.507 87.9819C160.428 88.02 160.36 88.0642 160.299 88.1111C160.601 88.5335 160.886 88.9683 161.153 89.412C161.283 89.3448 161.429 89.2561 161.522 89.4508C161.603 89.6205 161.642 89.8574 161.59 90.0323C161.581 90.062 161.569 90.085 161.554 90.1042C161.942 90.8027 162.29 91.5153 162.598 92.2254C162.622 92.2478 162.646 92.27 162.67 92.2901C163.051 92.6082 163.435 92.8931 163.438 93.4903C163.439 93.802 163.737 94.1335 164.035 94.1716C164.304 94.206 164.2 93.7919 164.31 93.5959C164.38 93.4718 164.426 93.3478 164.56 93.2758C164.747 93.1746 164.865 93.1341 164.931 93.4247C165.162 94.4522 165.229 94.4893 166.368 94.4643C166.197 94.082 166.028 93.6982 165.853 93.3176Z" fill="#83BB7C"/>
<path d="M134.243 92.2585C134.5 91.4881 134.942 90.7636 135.417 90.1101C135.977 89.3395 136.642 88.6301 137.367 88.0132C137.708 87.7244 138.077 87.4571 138.461 87.2297C138.612 87.1405 138.764 87.0531 138.92 86.9721C139.066 86.8957 139.265 87.0417 139.14 87.1978C139.088 87.2855 139.002 87.3643 138.935 87.4408C138.784 87.606 138.629 87.7684 138.482 87.9368C138.164 88.3025 137.846 88.6682 137.529 89.0348C136.932 89.7248 136.368 90.4438 135.761 91.1252C135.469 91.4537 135.173 91.7772 134.864 92.0907C134.751 92.2064 134.634 92.3203 134.51 92.425C134.388 92.5286 134.191 92.422 134.243 92.2585Z" fill="#C6E0BB"/>
<path d="M133.024 94.2508C132.986 94.2508 133.079 93.8245 133.093 93.7864C133.167 93.5801 133.289 93.3897 133.428 93.2219C133.529 93.1004 134.089 92.5443 134.124 93.0128C134.149 93.3559 133.93 93.7675 133.725 94.0253C133.609 94.1706 133.471 94.3134 133.304 94.3983C133.186 94.4582 133.039 94.3843 133.024 94.2508Z" fill="#C6E0BB"/>
<path d="M54.98 111.022H48.2069V110.332L50.3012 108.683V96.3621L44.3525 111.022H43.1271L37.2229 96.2062V108.95L39.5623 110.131L39.1167 111.022H33.9032V110.332L35.9975 108.683V95.6269L33.6804 94.3792L34.126 93.488H38.9607L44.5307 107.48L50.0784 93.488H55.2028V94.1787L53.0862 95.8274V109.307L55.4256 110.131L54.98 111.022ZM71.2481 111H57.8802V110.309L59.9745 108.661V95.159L57.6574 94.3792L58.103 93.488H71.0253L72.2284 93.087V98.2113L71.56 98.4341L68.9087 94.4906H62.7595V101.553H66.2574L67.8839 98.7015H68.5745V105.475L67.6833 105.92L66.2797 102.556H62.7595V109.997H68.8196L71.7828 105.608L72.4512 105.831V111.401L71.2481 111ZM85.1609 93.2875C86.6908 93.2875 88.0424 93.6588 89.2158 94.4015C90.4041 95.1293 91.3175 96.1467 91.9562 97.4538C92.6098 98.7609 92.9365 100.239 92.9365 101.888C92.9365 103.581 92.439 105.148 91.4438 106.589C90.4635 108.014 89.2381 109.151 87.7676 109.997C86.312 110.829 84.9158 111.245 83.579 111.245C82.8957 111.245 82.2051 111.208 81.507 111.134C80.3633 111.059 79.4795 111.022 78.8557 111.022H76.0261V110.332L78.1204 108.683V95.1367L75.8033 94.3792L76.2489 93.488H78.8334C80.2444 93.488 81.6184 93.4434 82.9552 93.3543C83.9652 93.2949 84.7004 93.2652 85.1609 93.2652V93.2875ZM84.2028 109.596C85.2723 109.596 86.2452 109.314 87.1215 108.75C87.9978 108.17 88.6811 107.376 89.1712 106.366C89.6763 105.341 89.9288 104.197 89.9288 102.935C89.9288 101.42 89.6911 100.046 89.2158 98.8129C88.7405 97.5652 88.0127 96.5701 87.0324 95.8274C86.0669 95.0847 84.8638 94.7134 83.423 94.7134C82.517 94.7134 81.6778 94.9808 80.9054 95.5155V109.039C81.8115 109.411 82.9106 109.596 84.2028 109.596ZM102.599 111H95.8256V110.309L97.9199 108.661V95.159L95.6028 94.3792L96.0484 93.488H102.822V94.1787L100.705 95.8274V109.307L103.044 110.109L102.599 111ZM123.087 111H116.314V110.309L118.408 108.683L116.693 104.561H109.207L107.38 108.772L111.301 110.109L110.855 111H104.082V110.309L106.177 108.661L112.482 94.201L114.799 93.0647L121.305 108.75L123.533 110.109L123.087 111ZM113.039 95.7383L109.652 103.559H116.292L113.039 95.7383Z" fill="#00A6FF"/>
<path d="M199.461 97.6078L194.114 112.201L191.797 113.337L188.254 102.844L184.935 112.201L182.617 113.337L176.891 97.5632L174.775 96.2933L175.221 95.4021H181.325V96.0927L179.699 97.3181L184.333 110.374L187.653 101.106L186.45 97.5409L184.4 96.2933L184.845 95.4021H191.396V96.0927L189.413 97.6301L193.557 110.33L198.147 97.6301L194.181 96.2933L194.626 95.4021H201.399V96.0927L199.461 97.6078ZM216.111 112.914H202.743V112.223L204.837 110.575V97.0731L202.52 96.2933L202.966 95.4021H215.888L217.091 95.001V100.125L216.423 100.348L213.772 96.4047H207.622V103.467H211.12L212.747 100.616H213.437V107.389L212.546 107.834L211.143 104.47H207.622V111.911H213.683L216.646 107.522L217.314 107.745V113.315L216.111 112.914ZM232.118 103.49C233.262 103.816 234.16 104.366 234.814 105.138C235.468 105.911 235.794 106.802 235.794 107.812C235.794 108.748 235.416 109.631 234.658 110.463C233.915 111.28 232.98 111.934 231.851 112.424C230.737 112.914 229.675 113.159 228.665 113.159C227.922 113.159 227.194 113.122 226.481 113.048C225.293 112.973 224.372 112.936 223.719 112.936H220.889V112.246L222.983 110.597V97.0508L220.666 96.2933L221.112 95.4021H223.696C225.048 95.4021 226.377 95.3575 227.684 95.2684C228.694 95.209 229.437 95.1793 229.912 95.1793C230.908 95.1793 231.784 95.3724 232.541 95.7585C233.299 96.1447 233.878 96.672 234.279 97.3404C234.695 97.994 234.903 98.7292 234.903 99.5461C234.903 100.289 234.643 101.002 234.123 101.685C233.618 102.353 232.95 102.94 232.118 103.445V103.49ZM231.895 100.66C231.895 99.4867 231.583 98.5287 230.96 97.786C230.336 97.0434 229.407 96.672 228.175 96.672C227.283 96.672 226.481 96.9245 225.768 97.4295V103.334H228.954C229.875 103.334 230.596 103.103 231.116 102.643C231.635 102.168 231.895 101.499 231.895 100.638V100.66ZM229.289 111.533C230.358 111.533 231.205 111.265 231.828 110.731C232.467 110.196 232.787 109.476 232.787 108.569C232.787 107.411 232.445 106.475 231.762 105.762C231.093 105.049 230.091 104.671 228.754 104.626C228.65 104.641 228.509 104.648 228.331 104.648H225.768V110.953C226.764 111.354 227.937 111.555 229.289 111.555V111.533Z" fill="#00A6FF"/>
<defs>
<filter id="filter0_d_2916_4" x="24.6619" y="119.648" width="221.676" height="93.1709" filterUnits="userSpaceOnUse" color-interpolation-filters="sRGB">
<feFlood flood-opacity="0" result="BackgroundImageFix"/>
<feColorMatrix in="SourceAlpha" type="matrix" values="0 0 0 0 0 0 0 0 0 0 0 0 0 0 0 0 0 0 127 0" result="hardAlpha"/>
<feOffset dy="7.92263"/>
<feGaussianBlur stdDeviation="3.16905"/>
<feComposite in2="hardAlpha" operator="out"/>
<feColorMatrix type="matrix" values="0 0 0 0 0 0 0 0 0 0 0 0 0 0 0 0 0 0 0.25 0"/>
<feBlend mode="normal" in2="BackgroundImageFix" result="effect1_dropShadow_2916_4"/>
<feBlend mode="normal" in="SourceGraphic" in2="effect1_dropShadow_2916_4" result="shape"/>
</filter>
</defs>
</svg>
