<svg width="222" height="140" viewBox="0 0 222 140" fill="none" xmlns="http://www.w3.org/2000/svg">
<g filter="url(#filter0_d_2687_16)">
<path d="M47.8634 75.4751H69.836V61.7279C69.836 61.7279 69.2494 51.1712 51.0163 47.4177C51.0163 47.4177 33.8586 44.8841 25.4997 49.0129C25.4997 49.0129 7.07113 54.5728 8.92865 72.0735C8.92865 72.0735 9.63744 81.7622 21.7847 88.5419L46.3236 98.6529C46.3236 98.6529 52.9471 102.054 42.7307 105.503L35.2762 105.691C35.2762 105.691 29.4348 105.573 28.4571 102.922L27.8705 94.1722L6.33789 94.4302V107.145C6.33789 107.145 6.97336 116.2 18.6073 121.643C28.3105 126.147 31.3901 124.599 38.0869 125.397C45.6148 126.311 54.6091 123.168 59.2285 121.08C59.2285 121.08 63.9945 119.414 69.836 111.954C69.836 111.954 73.1844 106.582 72.4756 97.6441C72.4756 97.6441 74.1376 85.1169 52.9471 78.7125L37.9158 73.9737C37.9158 73.9737 30.5346 69.1645 35.4717 67.0062C38.3069 65.8333 48.01 64.4726 47.8634 69.4226V75.4751Z" fill="white"/>
<path d="M73.8975 48.0723V66.8163H85.0671V104.68H73.8975V123.987H125.688C125.688 123.987 93.1082 115.049 103.52 82.3698L113.223 48.0723H73.8975Z" fill="white"/>
<path d="M133.655 48.0729C133.655 48.0729 130.111 62.1954 128.645 67.7553C128.645 67.7553 144.067 64.5414 153.771 73.1275C153.771 73.1275 165.136 83.8484 163.278 95.4608C163.278 95.4608 164.231 117.301 139.057 123.33H163.474L176.647 102.804L190.408 123.33L215.338 124.081V104.399L204.73 104.774L190.799 84.2472L203.777 67.0984L215.338 67.2861V48.1668H188.721L176.965 66.3008L164.109 47.3691L133.655 48.0729Z" fill="white"/>
<path d="M139.796 87.2486C143.561 92.1235 142.001 98.1161 142.001 98.1161C139.845 105.678 131.521 104.989 131.521 104.989C122.081 103.918 122.329 94.1686 122.329 94.1686C122.403 83.9194 131.967 83.8719 131.967 83.8719C137.046 83.6816 139.796 87.2486 139.796 87.2486ZM135.931 47.3457L113.534 47.417L102.385 79.9244C102.385 79.9244 95.4727 98.0448 104.466 111.243C104.466 111.243 110.511 121.563 123.543 123.799C123.543 123.799 135.98 127.056 149.607 120.184C149.607 120.184 162.515 114.382 164.397 100.375C164.397 100.375 168.163 78.5689 149.755 68.6764C149.755 68.6764 140.514 63.1832 129.117 67.3685L135.931 47.3457Z" fill="#00A6FF"/>
</g>
<path fill-rule="evenodd" clip-rule="evenodd" d="M142.976 28.1984C142.976 38.3881 134.715 46.6486 124.526 46.6486C114.336 46.6486 106.075 38.3883 106.075 28.1984C106.075 18.0086 114.336 9.74805 124.526 9.74805C134.716 9.74805 142.976 18.0086 142.976 28.1984Z" fill="#2072B4"/>
<path fill-rule="evenodd" clip-rule="evenodd" d="M131.239 11.0078C134.472 12.8152 136.711 16.2712 138.097 19.6017C139.643 23.3191 140.598 27.7371 139.295 31.6718C138.207 34.9561 135.83 37.6937 132.835 39.4019C129.488 41.3101 125.68 41.8152 121.872 41.7064C117.646 41.5856 113.781 40.3588 110.506 37.6298C109.127 36.481 107.933 35.1417 106.903 33.6778C109.236 41.1921 116.244 46.6486 124.526 46.6486C134.716 46.6486 142.976 38.3881 142.976 28.1985C142.976 20.3769 138.109 13.6929 131.239 11.0078Z" fill="#1D56A3"/>
<path fill-rule="evenodd" clip-rule="evenodd" d="M113.858 13.1335C114.388 13.2668 114.914 13.4145 115.448 13.5295C115.902 13.6273 116.178 14.192 116.739 14.0008C116.875 13.9542 117.104 14.0585 117.112 13.8177C117.119 13.5819 116.92 13.5502 116.727 13.5388C116.445 13.5226 116.127 13.6639 116.106 13.1192C116.093 12.7761 115.611 13.1177 115.334 12.9232C115.773 12.4929 116.178 12.1208 116.838 12.1951C117.096 12.2239 117.285 12.2806 117.45 12.4946C117.873 13.0419 118.266 13.0818 118.806 12.6601C118.93 12.5634 119.06 12.3844 119.202 12.5722C119.334 12.746 119.124 12.841 119.023 12.9519C118.809 13.1858 118.558 13.3223 118.228 13.289C117.941 13.2597 117.828 13.3975 117.861 13.6831C117.893 13.9605 118.066 13.9607 118.29 13.9674C118.821 13.9825 119.251 13.6417 119.769 13.5892C120.034 13.5623 120.157 13.2823 119.865 13.0719C119.733 12.9762 119.634 12.9133 119.71 12.7512C119.777 12.609 119.912 12.5599 120.06 12.5582C120.4 12.5541 120.741 12.5571 121.071 12.5571C121.165 12.7725 120.992 12.8315 120.905 12.9116C120.734 13.0678 120.574 13.2011 120.71 13.4681C120.832 13.7059 121.041 13.7677 121.263 13.7363C121.571 13.6924 121.46 13.4193 121.447 13.2495C121.417 12.8795 121.655 12.738 121.925 12.6534C122.563 12.4539 123.218 12.2961 123.841 12.6857C124.29 12.9661 125.039 12.914 125.012 13.7496C125.005 13.9517 125.666 13.8603 125.325 14.3135C125.129 14.5745 124.848 14.4554 124.601 14.4963C124.562 14.5026 124.503 14.508 124.491 14.5325C123.976 15.5726 123.332 14.6159 122.676 14.7522C122.896 14.3768 123.198 14.3342 123.423 14.1821C123.549 14.0977 123.768 14.0626 123.726 13.8608C123.687 13.6788 123.52 13.5459 123.336 13.5306C122.937 13.4972 122.521 13.4645 122.156 13.6583C121.849 13.8211 121.644 14.1225 121.244 14.1944C121.106 14.2189 120.994 14.671 120.759 14.8608C120.593 14.9939 120.442 15.0072 120.395 14.7966C120.302 14.3686 120.053 14.5185 119.802 14.5896C119.154 14.7731 118.621 15.1823 118.051 15.5114C117.655 15.7399 117.915 16.0858 118.084 16.343C118.204 16.5252 118.419 16.6301 118.646 16.6617C119.128 16.7283 119.571 16.819 119.424 17.486C119.397 17.6053 119.457 17.7233 119.614 17.7375C119.778 17.7524 119.896 17.6738 119.94 17.528C120.092 17.0238 120.465 16.7994 120.944 16.696C121.288 16.6215 121.209 16.3434 121.215 16.1151C121.241 15.0124 121.843 14.6822 122.828 15.2282C123.001 15.3247 123.042 15.4554 122.995 15.6277C122.849 16.1599 123.165 16.1037 123.49 16.0087C123.623 15.9697 123.744 15.8898 123.867 15.8209C124.154 15.6594 124.284 15.755 124.25 16.0684C124.205 16.494 124.359 16.7735 124.736 17.0063C125.117 17.2426 125.081 17.6236 124.673 17.8358C124.258 18.0509 124.306 18.1892 124.677 18.3804C124.872 18.481 125.257 18.5937 125.035 18.8631C124.801 19.1467 124.439 18.8519 124.143 18.7746C123.913 18.7147 123.81 18.5536 123.986 18.3223C124.083 18.1956 124.218 18.0556 124.041 17.9105C123.897 17.7935 123.798 17.9536 123.676 18.0102C123.376 18.1506 123.083 18.2096 122.795 17.9327C122.541 17.688 122.215 17.6585 122.033 17.9947C121.8 18.4263 122.391 18.3018 122.457 18.4963C121.142 19.0022 120.189 19.9942 119.155 20.8726C119.109 20.9115 119.042 20.952 119.032 21.0013C118.841 21.9425 117.944 22.2126 117.349 22.7663C117.085 23.0114 117.007 23.2749 117.023 23.6199C117.03 23.7741 117.271 24.07 116.92 24.0922C116.707 24.1056 116.369 23.9718 116.391 23.6987C116.44 23.0631 116.026 23.1583 115.666 23.1827C115.036 23.2249 114.41 23.0961 113.775 23.3746C113.027 23.7024 112.714 24.2908 112.444 24.9761C112.266 25.4265 112.414 25.8014 112.741 26.0392C113.048 26.2625 113.46 26.2727 113.818 26.0478C114.072 25.8882 114.314 25.7082 114.568 25.5479C114.689 25.4717 114.794 25.2735 114.976 25.4426C115.108 25.5649 115.047 25.7243 114.982 25.8335C114.662 26.3722 114.773 26.6584 115.428 26.6754C115.624 26.6804 115.697 26.8077 115.713 26.9935C115.726 27.1527 115.771 27.3091 115.791 27.468C115.911 28.4353 115.913 28.4142 116.827 28.5746C117.262 28.6511 117.491 28.4327 117.744 28.1563C118.391 27.448 118.92 27.4353 119.593 28.1159C119.943 28.4693 120.391 28.4288 120.699 28.2261C121.133 27.941 121.395 28.0993 121.567 28.4238C121.895 29.0405 122.276 29.4144 123.057 29.3334C123.51 29.2864 123.581 29.815 123.731 30.1481C123.851 30.4135 123.613 30.8115 123.913 30.987C124.359 31.2481 124.847 31.452 125.383 31.4703C125.524 31.4751 125.665 31.4802 125.805 31.4705C126.347 31.4329 126.854 31.443 127.086 32.0801C127.126 32.1886 127.286 32.2929 127.41 32.3243C128.038 32.4841 127.94 32.9726 127.656 33.2188C126.829 33.9332 126.897 34.8922 126.786 35.8097C126.708 36.4597 126.261 36.8847 125.602 36.886C124.741 36.8875 124.508 37.1513 124.739 37.9809C124.874 38.4636 124.805 38.8224 124.449 39.1732C124.195 39.4246 123.926 39.7037 123.789 40.0244C123.428 40.8704 122.708 41.1588 121.912 41.3438C121.586 41.4198 121.41 41.528 121.755 41.7715C122.073 41.9962 121.943 42.1573 121.762 42.3462C121.469 42.6526 121.593 42.8732 121.935 42.9606C122.308 43.0563 122.399 43.2411 122.234 43.5622C122.011 43.9953 122.198 44.2686 122.538 44.5301C122.695 44.6503 122.964 44.7791 122.829 45.0513C122.722 45.2692 122.503 45.0946 122.336 45.1189C121.483 45.2451 121.05 44.5887 120.633 44.0799C120.129 43.4633 119.63 42.7692 119.88 41.845C119.949 41.5919 119.996 41.268 119.763 41.0436C119.324 40.6193 119.22 40.1099 119.439 39.5728C119.632 39.1002 119.157 38.8381 119.173 38.4287C119.196 37.8476 119.177 37.2648 119.178 36.6826C119.179 35.6605 118.874 35.1862 117.914 34.8685C117.584 34.7596 117.435 34.6211 117.358 34.2719C117.247 33.7703 116.802 33.4561 116.49 33.0742C115.797 32.2261 115.897 30.9297 116.802 30.3428C117.339 29.9944 116.964 29.5854 116.994 29.2121C117.024 28.8382 116.653 28.9026 116.456 28.911C115.704 28.9429 115.209 28.5503 114.823 27.9832C114.602 27.6584 114.311 27.5102 113.946 27.4187C113.624 27.3381 113.2 27.3959 113.124 26.8843C113.103 26.7383 112.869 26.7334 112.754 26.7818C112.197 27.0177 111.696 26.7127 111.18 26.6233C110.783 26.5544 110.378 25.7207 110.517 25.3248C110.588 25.1221 110.547 24.9955 110.433 24.835C109.997 24.2178 109.482 23.6363 109.437 22.8232C109.431 22.6944 109.374 22.571 109.226 22.5837C109.031 22.6003 109.061 22.7691 109.046 22.9068C108.989 23.4256 109.244 23.8228 109.514 24.2311C109.667 24.4607 109.996 24.8032 109.676 25.0149C109.319 25.2503 109.111 24.8673 108.905 24.5736C108.527 24.0349 108.394 23.4588 108.455 22.8163C108.481 22.5536 108.483 22.2902 108.156 22.1739C107.735 22.0246 107.536 21.7502 107.693 21.2889C107.742 21.1441 107.7 21.0502 107.519 21.1039C108.552 18.456 110.192 16.2379 112.303 14.3564C112.796 13.9176 113.292 13.4796 113.858 13.1335Z" fill="#98CA8A"/>
<path fill-rule="evenodd" clip-rule="evenodd" d="M138.814 39.673C138.462 39.7238 138.266 39.5987 138.319 39.2173C138.392 38.6982 138.211 38.2701 137.855 37.9084C137.495 37.5425 137.602 37.0842 137.602 36.6526C137.601 36.3213 137.586 36.0243 137.297 35.7894C136.902 35.4693 136.879 35.0271 137.153 34.6601C137.71 33.9121 137.604 33.2606 137.084 32.5441C136.585 31.8585 136.178 31.1138 136.503 30.1982C136.574 29.9968 136.526 29.8054 136.237 29.7726C135.783 29.7216 135.351 29.6496 134.957 29.3453C134.74 29.1782 134.348 29.2064 134.086 29.3472C133.359 29.7375 132.554 29.5043 131.805 29.6858C131.751 29.6994 131.671 29.6974 131.629 29.6666C130.944 29.1605 130.45 28.4713 129.932 27.8161C129.633 27.4382 129.831 26.9223 129.811 26.4683C129.803 26.2919 129.984 26.2038 130.048 26.0686C130.15 25.8541 130.406 25.6245 129.949 25.4106C129.635 25.2635 129.569 24.9172 129.944 24.6542C130.272 24.424 130.575 24.155 130.916 23.9465C131.419 23.6387 131.771 23.3228 131.725 22.6258C131.686 22.0488 132.356 21.8582 132.718 21.8808C133.771 21.9472 134.69 21.416 135.71 21.374C136.44 21.3441 136.485 21.3083 136.543 22.0146C136.565 22.2741 136.662 22.4061 136.917 22.4763C137.436 22.6191 137.98 22.6835 138.454 22.9756C138.601 23.066 138.733 23.055 138.83 22.8423C139.024 22.4139 139.57 22.2084 139.926 22.5293C140.612 23.1485 141.397 23.0501 142.192 23.0318C143.816 29.1373 142.709 34.6879 138.814 39.673Z" fill="#98CA8A"/>
<path fill-rule="evenodd" clip-rule="evenodd" d="M141.706 21.4647C140.567 21.4897 140.5 21.4526 140.268 20.4251C140.203 20.1348 140.085 20.175 139.898 20.2763C139.764 20.3482 139.718 20.4725 139.648 20.5963C139.538 20.7925 139.642 21.2067 139.373 21.172C139.074 21.1339 138.777 20.8024 138.776 20.4908C138.773 19.8935 138.389 19.6086 138.008 19.2905C137.932 19.2269 137.859 19.1382 137.77 19.115C137.538 19.0538 137.22 18.9717 137.091 19.1617C136.944 19.3797 137.102 19.6719 137.302 19.8464C137.48 20.0023 137.704 20.1074 137.913 20.225C138.097 20.3282 138.256 20.4126 138.152 20.6842C138.065 20.9131 138.153 21.2205 137.809 21.3148C137.543 21.3876 137.34 21.3422 137.214 21.0792C137.327 20.94 137.485 21.0262 137.608 20.9773C137.835 20.8871 137.889 20.7766 137.674 20.595C137.237 20.2265 136.639 20.0577 136.344 19.5128C136.329 19.4845 136.233 19.4731 136.19 19.4908C135.383 19.8238 134.565 20.1085 134.192 21.0439C133.964 21.6172 132.4 21.6351 132.153 21.0788C131.986 20.7025 131.923 20.2248 132.179 19.8621C132.394 19.5565 132.806 19.5543 133.165 19.5668C133.342 19.5731 133.516 19.6407 133.693 19.6676C133.842 19.6902 133.967 19.6553 134.032 19.4916C134.09 19.3445 134.062 19.2513 133.958 19.1206C133.575 18.6396 133.726 18.2776 134.338 18.2302C134.654 18.2061 134.898 18.0917 135.023 17.8236C135.317 17.1891 135.818 17.0467 136.454 17.1372C136.617 17.1602 136.864 17.2524 136.928 17.0325C136.98 16.8576 136.942 16.6207 136.86 16.451C136.742 16.2037 136.538 16.4135 136.392 16.4561C136.209 16.5091 136.083 16.5253 136.013 16.32C135.939 16.1042 135.807 15.9866 135.584 15.8759C135.201 15.6851 135.348 15.2227 135.845 14.9819C136.188 14.8158 136.67 14.8083 136.674 14.2559C138.544 16.0047 140.112 17.9793 141.19 20.3176C141.366 20.6986 141.535 21.0824 141.706 21.4647Z" fill="#98CA8A"/>
<path fill-rule="evenodd" clip-rule="evenodd" d="M133.875 17.9858C133.711 17.9496 133.443 18.0894 133.359 17.8593C133.285 17.6556 133.428 17.4839 133.609 17.3119C134.004 16.9347 133.514 16.8445 133.331 16.6713C133.203 16.5505 133.002 16.4792 133.086 16.2475C133.144 16.0868 133.266 15.9828 133.437 15.9507C133.649 15.9111 133.825 15.9087 133.887 16.1934C133.995 16.6914 134.186 17.149 134.666 17.4174C134.858 17.5249 134.764 17.6347 134.671 17.7538C134.465 18.017 134.174 17.9724 133.875 17.9858Z" fill="#98CA8A"/>
<path fill-rule="evenodd" clip-rule="evenodd" d="M132.359 17.7417C132.307 17.7326 132.241 17.7363 132.192 17.7098C132.063 17.6404 132.055 17.5052 132.1 17.3979C132.241 17.0604 132.42 16.7499 132.843 16.7171C133.012 16.704 133.169 16.7449 133.236 16.9159C133.318 17.1248 133.184 17.2489 133.028 17.3566C132.817 17.5017 132.64 17.7025 132.359 17.7417Z" fill="#98CA8A"/>
<path fill-rule="evenodd" clip-rule="evenodd" d="M123.35 19.02C123.341 19.2192 123.145 19.2903 123.048 19.4279C122.949 19.5689 122.771 19.5888 122.615 19.5102C122.557 19.4809 122.485 19.3824 122.495 19.3295C122.531 19.1315 122.715 19.1979 122.837 19.1886C123.025 19.1744 123.09 18.8201 123.35 19.02Z" fill="#98CA8A"/>
<path fill-rule="evenodd" clip-rule="evenodd" d="M121.873 19.6467C121.753 19.6281 121.698 19.5485 121.734 19.4403C121.756 19.3751 121.825 19.2861 121.881 19.2803C121.991 19.2685 122.048 19.3617 122.055 19.4698C122.063 19.5943 121.989 19.6432 121.873 19.6467Z" fill="#98CA8A"/>
<path fill-rule="evenodd" clip-rule="evenodd" d="M122.539 44.5295C122.199 44.2681 122.011 43.9945 122.234 43.5616C122.399 43.2407 122.308 43.0557 121.935 42.9601C121.594 42.8726 121.469 42.6521 121.762 42.3456C121.943 42.1567 122.073 41.9956 121.755 41.771C121.717 41.7445 121.687 41.7195 121.661 41.696C121.078 41.6741 120.501 41.6301 119.932 41.5645C119.924 41.6616 119.904 41.7574 119.88 41.8444C119.631 42.7684 120.13 43.4628 120.634 44.0794C121.05 44.5881 121.483 45.2448 122.337 45.1184C122.503 45.094 122.722 45.2689 122.829 45.0507C122.964 44.7785 122.695 44.6497 122.539 44.5295Z" fill="#83BB7C"/>
<path fill-rule="evenodd" clip-rule="evenodd" d="M142.192 23.0318C141.397 23.0499 140.613 23.1486 139.926 22.5294C139.688 22.3146 139.365 22.3364 139.119 22.502C139.979 25.4975 140.272 28.7206 139.295 31.6716C138.815 33.12 138.084 34.4616 137.16 35.6559C137.2 35.702 137.244 35.747 137.297 35.7894C137.586 36.0244 137.601 36.3214 137.602 36.6526C137.602 37.0842 137.494 37.5426 137.855 37.9085C138.211 38.2701 138.391 38.6983 138.319 39.2173C138.265 39.5988 138.559 39.8034 138.911 39.7528C142.805 34.7674 143.816 29.1371 142.192 23.0318Z" fill="#83BB7C"/>
<path fill-rule="evenodd" clip-rule="evenodd" d="M141.19 20.3176C140.112 17.9793 138.544 16.0047 136.674 14.2559C136.67 14.8083 136.187 14.8158 135.845 14.9819C135.766 15.02 135.698 15.0642 135.637 15.1111C135.939 15.5335 136.224 15.9683 136.491 16.412C136.621 16.3448 136.766 16.2561 136.86 16.4508C136.941 16.6205 136.979 16.8574 136.928 17.0323C136.919 17.062 136.907 17.085 136.892 17.1042C137.28 17.8027 137.627 18.5153 137.936 19.2254C137.96 19.2478 137.984 19.27 138.008 19.2901C138.389 19.6082 138.773 19.8931 138.776 20.4903C138.777 20.802 139.074 21.1335 139.373 21.1716C139.642 21.206 139.538 20.7919 139.648 20.5959C139.718 20.4718 139.764 20.3478 139.898 20.2758C140.085 20.1746 140.203 20.1341 140.268 20.4247C140.5 21.4522 140.567 21.4893 141.706 21.4643C141.534 21.082 141.366 20.6982 141.19 20.3176Z" fill="#83BB7C"/>
<path d="M109.581 19.2585C109.837 18.4881 110.28 17.7636 110.755 17.1101C111.315 16.3395 111.98 15.6301 112.705 15.0132C113.046 14.7244 113.415 14.4571 113.799 14.2297C113.95 14.1405 114.102 14.0531 114.258 13.9721C114.404 13.8957 114.603 14.0417 114.478 14.1978C114.426 14.2855 114.34 14.3643 114.273 14.4408C114.122 14.606 113.967 14.7684 113.82 14.9368C113.502 15.3025 113.184 15.6682 112.867 16.0348C112.27 16.7248 111.706 17.4438 111.099 18.1252C110.807 18.4537 110.511 18.7772 110.202 19.0907C110.089 19.2064 109.972 19.3203 109.848 19.425C109.725 19.5286 109.529 19.422 109.581 19.2585Z" fill="#C6E0BB"/>
<path d="M108.362 21.2508C108.324 21.2508 108.417 20.8245 108.43 20.7864C108.505 20.5801 108.626 20.3897 108.766 20.2219C108.867 20.1004 109.427 19.5443 109.462 20.0128C109.487 20.3559 109.267 20.7675 109.063 21.0253C108.947 21.1706 108.809 21.3134 108.642 21.3983C108.524 21.4582 108.377 21.3843 108.362 21.2508Z" fill="#C6E0BB"/>
<path d="M30.3179 38.0223H23.5448V37.3316L25.6391 35.6829V23.3621L19.6904 38.0223H18.465L12.5608 23.2062V35.9503L14.9002 37.1311L14.4546 38.0223H9.24109V37.3316L11.3354 35.6829V22.6269L9.01829 21.3792L9.46389 20.488H14.2986L19.8686 34.4798L25.4163 20.488H30.5407V21.1787L28.4241 22.8274V36.3067L30.7635 37.1311L30.3179 38.0223ZM46.586 38H33.2181V37.3093L35.3124 35.6606V22.159L32.9953 21.3792L33.4409 20.488H46.3632L47.5663 20.087V25.2113L46.8979 25.4341L44.2466 21.4906H38.0974V28.5533H41.5953L43.2217 25.7015H43.9124V32.4746L43.0212 32.9202L41.6176 29.5559H38.0974V36.9974H44.1575L47.1207 32.6083L47.7891 32.8311V38.401L46.586 38ZM60.4988 20.2875C62.0286 20.2875 63.3803 20.6588 64.5537 21.4015C65.742 22.1293 66.6554 23.1467 67.2941 24.4538C67.9477 25.7609 68.2744 27.2388 68.2744 28.8875C68.2744 30.5808 67.7769 32.1478 66.7817 33.5886C65.8014 35.0145 64.576 36.1508 63.1055 36.9974C61.6499 37.8292 60.2537 38.2451 58.9169 38.2451C58.2336 38.2451 57.543 38.2079 56.8449 38.1337C55.7012 38.0594 54.8174 38.0223 54.1935 38.0223H51.364V37.3316L53.4583 35.6829V22.1367L51.1412 21.3792L51.5868 20.488H54.1713C55.5823 20.488 56.9563 20.4434 58.293 20.3543C59.3031 20.2949 60.0383 20.2652 60.4988 20.2652V20.2875ZM59.5407 36.5964C60.6102 36.5964 61.583 36.3142 62.4594 35.7497C63.3357 35.1705 64.019 34.3758 64.5091 33.3658C65.0141 32.3409 65.2667 31.1972 65.2667 29.9347C65.2667 28.4196 65.029 27.0457 64.5537 25.8129C64.0784 24.5652 63.3506 23.5701 62.3703 22.8274C61.4048 22.0847 60.2017 21.7134 58.7609 21.7134C57.8549 21.7134 57.0157 21.9808 56.2433 22.5155V36.0394C57.1493 36.4107 58.2485 36.5964 59.5407 36.5964ZM77.9366 38H71.1635V37.3093L73.2578 35.6606V22.159L70.9407 21.3792L71.3863 20.488H78.1594V21.1787L76.0428 22.8274V36.3067L78.3822 37.1088L77.9366 38ZM98.425 38H91.652V37.3093L93.7463 35.6829L92.0307 31.5611H84.5447L82.7177 35.772L86.639 37.1088L86.1934 38H79.4203V37.3093L81.5146 35.6606L87.8198 21.201L90.1369 20.0647L96.6427 35.7497L98.8706 37.1088L98.425 38ZM88.3768 22.7383L84.9903 30.5585H91.6297L88.3768 22.7383Z" fill="#00A6FF"/>
<path d="M174.799 24.6078L169.452 39.2011L167.135 40.3374L163.592 29.8436L160.272 39.2011L157.955 40.3374L152.229 24.5632L150.113 23.2933L150.558 22.4021H156.663V23.0927L155.037 24.3181L159.671 37.3742L162.991 28.1057L161.787 24.5409L159.738 23.2933L160.183 22.4021H166.734V23.0927L164.751 24.6301L168.895 37.3296L173.484 24.6301L169.519 23.2933L169.964 22.4021H176.737V23.0927L174.799 24.6078ZM191.449 39.9141H178.081V39.2234L180.175 37.5747V24.0731L177.858 23.2933L178.304 22.4021H191.226L192.429 22.001V27.1254L191.761 27.3482L189.11 23.4047H182.96V30.4674H186.458L188.085 27.6156H188.775V34.3886L187.884 34.8342L186.481 31.47H182.96V38.9115H189.02L191.984 34.5223L192.652 34.7451V40.3151L191.449 39.9141ZM207.456 30.4897C208.6 30.8164 209.498 31.366 210.152 32.1384C210.805 32.9108 211.132 33.8019 211.132 34.812C211.132 35.7477 210.753 36.6315 209.996 37.4633C209.253 38.2802 208.317 38.9337 207.189 39.4239C206.075 39.9141 205.013 40.1591 204.003 40.1591C203.26 40.1591 202.532 40.122 201.819 40.0477C200.631 39.9735 199.71 39.9363 199.056 39.9363H196.227V39.2457L198.321 37.597V24.0508L196.004 23.2933L196.45 22.4021H199.034C200.386 22.4021 201.715 22.3575 203.022 22.2684C204.032 22.209 204.775 22.1793 205.25 22.1793C206.245 22.1793 207.122 22.3724 207.879 22.7585C208.637 23.1447 209.216 23.672 209.617 24.3404C210.033 24.994 210.241 25.7292 210.241 26.5461C210.241 27.2888 209.981 28.0017 209.461 28.685C208.956 29.3534 208.288 29.9401 207.456 30.4451V30.4897ZM207.233 27.6601C207.233 26.4867 206.921 25.5287 206.297 24.786C205.674 24.0434 204.745 23.672 203.512 23.672C202.621 23.672 201.819 23.9245 201.106 24.4295V30.3337H204.292C205.213 30.3337 205.934 30.1035 206.453 29.643C206.973 29.1677 207.233 28.4993 207.233 27.6378V27.6601ZM204.626 38.5327C205.696 38.5327 206.543 38.2654 207.166 37.7306C207.805 37.1959 208.124 36.4755 208.124 35.5695C208.124 34.4109 207.783 33.4752 207.1 32.7622C206.431 32.0493 205.429 31.6705 204.092 31.6259C203.988 31.6408 203.847 31.6482 203.668 31.6482H201.106V37.9534C202.101 38.3545 203.275 38.555 204.626 38.555V38.5327Z" fill="#00A6FF"/>
<defs>
<filter id="filter0_d_2687_16" x="-0.000214577" y="46.6484" width="221.676" height="93.1709" filterUnits="userSpaceOnUse" color-interpolation-filters="sRGB">
<feFlood flood-opacity="0" result="BackgroundImageFix"/>
<feColorMatrix in="SourceAlpha" type="matrix" values="0 0 0 0 0 0 0 0 0 0 0 0 0 0 0 0 0 0 127 0" result="hardAlpha"/>
<feOffset dy="7.92263"/>
<feGaussianBlur stdDeviation="3.16905"/>
<feComposite in2="hardAlpha" operator="out"/>
<feColorMatrix type="matrix" values="0 0 0 0 0 0 0 0 0 0 0 0 0 0 0 0 0 0 0.25 0"/>
<feBlend mode="normal" in2="BackgroundImageFix" result="effect1_dropShadow_2687_16"/>
<feBlend mode="normal" in="SourceGraphic" in2="effect1_dropShadow_2687_16" result="shape"/>
</filter>
</defs>
</svg>
